# xmcd CD database file
#
# Track frame offsets:
#	150
#	21246
#	47932
#	66146
#	82266
#	98225
#	115260
#	162738
#	189703
#	215260
#
# Disc length: 2955 seconds
#
# Revision: 0
# Processed by: cddbd v1.5.2PL0 Copyright (c) Steve Scherf et al.
# Submitted via: CDex 1.70beta2
#
DISCID=930b890a
DTITLE=Yiric Illians - CELTIC ZEN
DYEAR=2008
DGENRE=New Age
TTITLE0=The Celts
TTITLE1=Nemeton
TTITLE2=Clan des Scots
TTITLE3=The Wind of Shannon
TTITLE4=Angel celt
TTITLE5=Brumes des Orcades
TTITLE6=Stonehenge
TTITLE7=On the ways of Midlands
TTITLE8=Mer infinie 2008
TTITLE9=The Celts (reprise)
EXTD=YEAR: 2008
EXTT0=
EXTT1=
EXTT2=
EXTT3=
EXTT4=
EXTT5=
EXTT6=
EXTT7=
EXTT8=
EXTT9=
PLAYORDER=
